<?xml version="1.0" encoding="UTF-8"?>
<svg version="1.1" xmlns="http://www.w3.org/2000/svg" width="80" height="80">
<path d="M0 0 C1.41381958 0.30127808 1.41381958 0.30127808 2.85620117 0.60864258 C3.90324219 0.82552734 4.9502832 1.04241211 6.02905273 1.26586914 C7.14119141 1.50917969 8.25333008 1.75249023 9.39916992 2.00317383 C10.53322266 2.24003906 11.66727539 2.4769043 12.83569336 2.72094727 C17.5306784 3.70618174 22.21746677 4.72451039 26.89526367 5.78833008 C33.67312896 7.31931214 40.18940531 8.25272435 47.13745117 8.60473633 C49.58666992 8.81567383 49.58666992 8.81567383 50.58666992 9.81567383 C50.71166992 12.81567383 50.71166992 12.81567383 50.58666992 15.81567383 C49.03593845 17.3664053 47.55604739 16.94536511 45.40307617 16.94848633 C44.5580957 16.94977539 43.71311523 16.95106445 42.8425293 16.95239258 C41.9537207 16.94852539 41.06491211 16.9446582 40.14916992 16.94067383 C39.26422852 16.94454102 38.37928711 16.9484082 37.4675293 16.95239258 C36.62125977 16.95110352 35.77499023 16.94981445 34.90307617 16.94848633 C34.12391846 16.9473584 33.34476074 16.94623047 32.54199219 16.94506836 C30.58666992 16.81567383 30.58666992 16.81567383 28.58666992 15.81567383 C28.86861413 21.45455807 29.79130766 25.60450849 32.14916992 30.75317383 C34.63000833 36.30654486 35.18581299 40.7976146 34.58666992 46.81567383 C35.56506836 46.7634668 35.56506836 46.7634668 36.56323242 46.71020508 C42.07232364 46.53956951 45.77905416 46.77928493 50.58666992 49.81567383 C50.93456908 53.99046373 50.19441754 55.61245628 47.58666992 58.81567383 C48.27374023 58.80407227 48.96081055 58.7924707 49.66870117 58.78051758 C50.56975586 58.77149414 51.47081055 58.7624707 52.39916992 58.75317383 C53.29249023 58.74157227 54.18581055 58.7299707 55.10620117 58.71801758 C57.58666992 58.81567383 57.58666992 58.81567383 60.58666992 59.81567383 C60.58666992 62.78567383 60.58666992 65.75567383 60.58666992 68.81567383 C35.50666992 68.81567383 10.42666992 68.81567383 -15.41333008 68.81567383 C-15.41333008 65.84567383 -15.41333008 62.87567383 -15.41333008 59.81567383 C-14.21708008 59.40317383 -13.02083008 58.99067383 -11.78833008 58.56567383 C-8.98012607 57.52304817 -6.98886782 56.52667825 -4.47583008 54.81567383 C-1.61400659 52.94672788 -0.12517235 52.47704479 3.08666992 51.75317383 C7.19495244 50.43554356 8.6963917 48.77838004 10.81323242 45.05004883 C14.20341031 38.4542694 14.47808329 32.43622475 14.46166992 25.12817383 C14.48229492 23.93772461 14.50291992 22.74727539 14.52416992 21.52075195 C14.57079489 18.61834746 14.59115483 15.71837205 14.58666992 12.81567383 C13.39428711 12.62231445 12.2019043 12.42895508 10.97338867 12.22973633 C9.4069188 11.96709467 7.84051597 11.70405295 6.27416992 11.44067383 C5.09564453 11.25118164 5.09564453 11.25118164 3.89331055 11.05786133 C3.13598633 10.92895508 2.37866211 10.80004883 1.59838867 10.66723633 C0.90189209 10.55202637 0.20539551 10.43681641 -0.51220703 10.31811523 C-2.41333008 9.81567383 -2.41333008 9.81567383 -5.41333008 7.81567383 C-5.78833008 4.81567383 -5.78833008 4.81567383 -5.41333008 1.81567383 C-2.41333008 -0.18432617 -2.41333008 -0.18432617 0 0 Z M22.58666992 34.81567383 C22.53768555 35.41895508 22.48870117 36.02223633 22.43823242 36.64379883 C22.3634668 37.44301758 22.28870117 38.24223633 22.21166992 39.06567383 C22.14206055 39.85458008 22.07245117 40.64348633 22.00073242 41.45629883 C21.57159879 43.90155082 20.80066354 45.66404286 19.58666992 47.81567383 C23.05166992 47.32067383 23.05166992 47.32067383 26.58666992 46.81567383 C26.07869983 42.49792803 25.38984213 38.78265268 23.58666992 34.81567383 C23.25666992 34.81567383 22.92666992 34.81567383 22.58666992 34.81567383 Z " fill="#90B58E" transform="translate(17.413330078125,9.184326171875)"/>
<path d="M0 0 C9.32557857 0.61992385 18.22248168 2.71227046 27.3046875 4.828125 C35.58682657 6.68478035 43.52414934 7.62516253 52 8 C52.625 9.875 52.625 9.875 53 12 C51 14 51 14 48.20703125 14.265625 C42.10170189 14.23752222 36.7484225 14.13894791 31 12 C31 15.63 31 19.26 31 23 C27.04 23 23.08 23 19 23 C19 18.38 19 13.76 19 9 C16.5559375 8.8453125 16.5559375 8.8453125 14.0625 8.6875 C8.68963597 8.21424255 4.00526222 6.96502887 -1 5 C-0.67 3.35 -0.34 1.7 0 0 Z " fill="#FDEBA0" transform="translate(14,11)"/>
<path d="M0 0 C3.0946724 0.57103856 3.0946724 0.57103856 5.203125 -0.703125 C6.84669307 -0.79897631 8.49427142 -0.83296011 10.140625 -0.828125 C11.01589844 -0.83070312 11.89117187 -0.83328125 12.79296875 -0.8359375 C15.203125 -0.703125 15.203125 -0.703125 18.203125 0.296875 C18.203125 3.266875 18.203125 6.236875 18.203125 9.296875 C-0.936875 9.296875 -20.076875 9.296875 -39.796875 9.296875 C-39.796875 8.966875 -39.796875 8.636875 -39.796875 8.296875 C-39.02085938 8.06613281 -38.24484375 7.83539063 -37.4453125 7.59765625 C-36.36507812 7.27152344 -35.28484375 6.94539063 -34.171875 6.609375 C-32.97949219 6.25101562 -31.78710938 5.89265625 -30.55859375 5.5234375 C-26.82010755 4.3578598 -26.82010755 4.3578598 -23.37890625 2.8828125 C-15.04714509 -0.54960464 -8.77146223 -1.01585108 0 0 Z " fill="#84AFE6" transform="translate(59.796875,68.703125)"/>
<path d="M0 0 C3.33171413 0.39528812 4.62885459 0.29774402 7.6875 -0.5625 C12.9443617 -0.81686428 16.73108171 -0.54506731 21.6875 1.4375 C18.69750375 3.89984985 15.89610977 5.2780175 12.25 6.5625 C10.85974609 7.06136719 10.85974609 7.06136719 9.44140625 7.5703125 C3.64961314 9.39411118 -1.59849033 9.56183475 -7.625 9.5 C-8.87893555 9.49323242 -8.87893555 9.49323242 -10.15820312 9.48632812 C-12.20966649 9.47460548 -14.26109273 9.45667203 -16.3125 9.4375 C-16.3125 6.4675 -16.3125 3.4975 -16.3125 0.4375 C-11.01632157 -1.32789281 -5.47463778 -0.78941406 0 0 Z " fill="#FBE69D" transform="translate(18.3125,68.5625)"/>
<path d="M0 0 C0.94254639 0.20085205 1.88509277 0.4017041 2.85620117 0.60864258 C4.4267627 0.93396973 4.4267627 0.93396973 6.02905273 1.26586914 C7.14119141 1.50917969 8.25333008 1.75249023 9.39916992 2.00317383 C10.53322266 2.24003906 11.66727539 2.4769043 12.83569336 2.72094727 C17.5306784 3.70618174 22.21746677 4.72451039 26.89526367 5.78833008 C33.67312896 7.31931214 40.18940531 8.25272435 47.13745117 8.60473633 C49.58666992 8.81567383 49.58666992 8.81567383 50.58666992 9.81567383 C50.71166992 12.81567383 50.71166992 12.81567383 50.58666992 15.81567383 C49.03593845 17.3664053 47.55604739 16.94536511 45.40307617 16.94848633 C44.5580957 16.94977539 43.71311523 16.95106445 42.8425293 16.95239258 C41.9537207 16.94852539 41.06491211 16.9446582 40.14916992 16.94067383 C39.26422852 16.94454102 38.37928711 16.9484082 37.4675293 16.95239258 C36.62125977 16.95110352 35.77499023 16.94981445 34.90307617 16.94848633 C34.12391846 16.9473584 33.34476074 16.94623047 32.54199219 16.94506836 C30.58666992 16.81567383 30.58666992 16.81567383 28.58666992 15.81567383 C28.58666992 18.78567383 28.58666992 21.75567383 28.58666992 24.81567383 C28.25666992 24.81567383 27.92666992 24.81567383 27.58666992 24.81567383 C27.58666992 21.18567383 27.58666992 17.55567383 27.58666992 13.81567383 C28.47354492 13.98067383 29.36041992 14.14567383 30.27416992 14.31567383 C36.00457819 15.15629157 41.81091573 14.89384193 47.58666992 14.81567383 C47.91666992 13.49567383 48.24666992 12.17567383 48.58666992 10.81567383 C47.46776367 10.7409082 46.34885742 10.66614258 45.19604492 10.58911133 C33.17749108 9.64793001 21.63571081 7.52096588 9.88256836 4.84838867 C8.73304687 4.58751465 7.58352539 4.32664062 6.39916992 4.05786133 C5.37436523 3.81922363 4.34956055 3.58058594 3.29370117 3.3347168 C0.39132039 2.69013477 0.39132039 2.69013477 -3.41333008 2.81567383 C-3.41333008 4.13567383 -3.41333008 5.45567383 -3.41333008 6.81567383 C2.85666992 8.13567383 9.12666992 9.45567383 15.58666992 10.81567383 C15.58666992 15.43567383 15.58666992 20.05567383 15.58666992 24.81567383 C15.25666992 24.81567383 14.92666992 24.81567383 14.58666992 24.81567383 C14.58666992 20.85567383 14.58666992 16.89567383 14.58666992 12.81567383 C13.39428711 12.62231445 12.2019043 12.42895508 10.97338867 12.22973633 C9.4069188 11.96709467 7.84051597 11.70405295 6.27416992 11.44067383 C5.09564453 11.25118164 5.09564453 11.25118164 3.89331055 11.05786133 C3.13598633 10.92895508 2.37866211 10.80004883 1.59838867 10.66723633 C0.90189209 10.55202637 0.20539551 10.43681641 -0.51220703 10.31811523 C-2.41333008 9.81567383 -2.41333008 9.81567383 -5.41333008 7.81567383 C-5.78833008 4.81567383 -5.78833008 4.81567383 -5.41333008 1.81567383 C-2.41333008 -0.18432617 -2.41333008 -0.18432617 0 0 Z " fill="#BEA04D" transform="translate(17.413330078125,9.184326171875)"/>
<path d="M0 0 C4.29 0 8.58 0 13 0 C14.32 3.96 15.64 7.92 17 12 C15.02 12.33 13.04 12.66 11 13 C8 8.25 8 8.25 8 6 C7.34 6 6.68 6 6 6 C6 7.98 6 9.96 6 12 C4.02 12 2.04 12 0 12 C0 8.04 0 4.08 0 0 Z " fill="#89B4EC" transform="translate(33,35)"/>
<path d="M0 0 C3.5 0.25 3.5 0.25 5.5 2.25 C5.75 5.75 5.75 5.75 5.5 9.25 C3.5 11.25 3.5 11.25 0 11.5 C-3.5 11.25 -3.5 11.25 -5.5 9.25 C-5.75 5.75 -5.75 5.75 -5.5 2.25 C-3.5 0.25 -3.5 0.25 0 0 Z " fill="#E2CB7D" transform="translate(39.5,1.75)"/>
<path d="M0 0 C0.86625 0.20625 1.7325 0.4125 2.625 0.625 C2.04676904 4.68725548 0.73382263 7.47262346 -1.4375 10.9375 C-1.98535156 11.82050781 -2.53320312 12.70351563 -3.09765625 13.61328125 C-3.51917969 14.27714844 -3.94070312 14.94101562 -4.375 15.625 C-5.695 15.295 -7.015 14.965 -8.375 14.625 C-9.45309068 11.8946875 -9.45554451 10.83184583 -8.37109375 8.046875 C-4.12240484 0.7634083 -4.12240484 0.7634083 0 0 Z " fill="#FCEB9F" transform="translate(36.375,47.375)"/>
<path d="M0 0 C2.5 0.125 2.5 0.125 3.5 1.125 C3.5991757 3.26894519 3.6297015 5.41626732 3.625 7.5625 C3.62757812 8.73683594 3.63015625 9.91117188 3.6328125 11.12109375 C3.5 14.125 3.5 14.125 2.5 16.125 C0.85 15.795 -0.8 15.465 -2.5 15.125 C-2.69390729 12.81302845 -2.87996367 10.5003971 -3.0625 8.1875 C-3.21912109 6.25583984 -3.21912109 6.25583984 -3.37890625 4.28515625 C-3.41886719 3.24230469 -3.45882812 2.19945312 -3.5 1.125 C-2.5 0.125 -2.5 0.125 0 0 Z " fill="#FCEBA0" transform="translate(47.5,46.875)"/>
</svg>
